<svg width="80" height="80" viewBox="0 0 80 80" fill="none" xmlns="http://www.w3.org/2000/svg">
<path d="M45.5 73.3333H34.5C33.8888 73.3333 33.3472 73.1389 32.875 72.75C32.4027 72.3611 32.1111 71.8611 32 71.25L30.6666 62.8333C29.6111 62.4445 28.5 61.9167 27.3333 61.25C26.1666 60.5833 25.1388 59.8889 24.25 59.1667L16.5 62.75C15.8888 63.0278 15.2777 63.0694 14.6666 62.875C14.0555 62.6806 13.5833 62.2778 13.25 61.6667L7.74996 51.9167C7.41663 51.3611 7.33329 50.7778 7.49996 50.1667C7.66663 49.5556 7.99996 49.0556 8.49996 48.6667L15.6666 43.4167C15.5555 42.9167 15.4861 42.3472 15.4583 41.7083C15.4305 41.0694 15.4166 40.5 15.4166 40C15.4166 39.5 15.4305 38.9306 15.4583 38.2917C15.4861 37.6528 15.5555 37.0833 15.6666 36.5833L8.49996 31.3333C7.99996 30.9444 7.66663 30.4444 7.49996 29.8333C7.33329 29.2222 7.41663 28.6389 7.74996 28.0833L13.25 18.3333C13.5833 17.7222 14.0555 17.3194 14.6666 17.125C15.2777 16.9306 15.8888 16.9722 16.5 17.25L24.25 20.8333C25.1388 20.1111 26.1666 19.4167 27.3333 18.75C28.5 18.0833 29.6111 17.5833 30.6666 17.25L32 8.75001C32.1111 8.13889 32.4027 7.63889 32.875 7.25C33.3472 6.86112 33.8888 6.66667 34.5 6.66667H45.5C46.1111 6.66667 46.6527 6.86112 47.125 7.25C47.5972 7.63889 47.8888 8.13889 48 8.75001L49.3333 17.1667C50.3889 17.5556 51.5138 18.0695 52.7083 18.7083C53.9027 19.3472 54.9166 20.0556 55.75 20.8333L63.5 17.25C64.1111 16.9722 64.7222 16.9306 65.3333 17.125C65.9444 17.3194 66.4166 17.7222 66.75 18.3333L72.25 28C72.5833 28.5556 72.6805 29.1528 72.5416 29.7917C72.4027 30.4306 72.0555 30.9444 71.5 31.3333L64.3333 36.4167C64.4444 36.9722 64.5138 37.5694 64.5416 38.2083C64.5694 38.8472 64.5833 39.4445 64.5833 40C64.5833 40.5556 64.5694 41.1389 64.5416 41.75C64.5138 42.3611 64.4444 42.9445 64.3333 43.5L71.5 48.6667C72 49.0556 72.3333 49.5556 72.5 50.1667C72.6666 50.7778 72.5833 51.3611 72.25 51.9167L66.75 61.6667C66.4166 62.2778 65.9444 62.6806 65.3333 62.875C64.7222 63.0694 64.1111 63.0278 63.5 62.75L55.75 59.1667C54.8611 59.8889 53.8472 60.5972 52.7083 61.2917C51.5694 61.9861 50.4444 62.5 49.3333 62.8333L48 71.25C47.8888 71.8611 47.5972 72.3611 47.125 72.75C46.6527 73.1389 46.1111 73.3333 45.5 73.3333ZM40 50.8333C43 50.8333 45.5555 49.7778 47.6666 47.6667C49.7777 45.5556 50.8333 43 50.8333 40C50.8333 37 49.7777 34.4444 47.6666 32.3333C45.5555 30.2222 43 29.1667 40 29.1667C37 29.1667 34.4444 30.2222 32.3333 32.3333C30.2222 34.4444 29.1666 37 29.1666 40C29.1666 43 30.2222 45.5556 32.3333 47.6667C34.4444 49.7778 37 50.8333 40 50.8333ZM40 45.8333C38.3888 45.8333 37.0138 45.2639 35.875 44.125C34.7361 42.9861 34.1666 41.6111 34.1666 40C34.1666 38.3889 34.7361 37.0139 35.875 35.875C37.0138 34.7361 38.3888 34.1667 40 34.1667C41.6111 34.1667 42.9861 34.7361 44.125 35.875C45.2639 37.0139 45.8333 38.3889 45.8333 40C45.8333 41.6111 45.2639 42.9861 44.125 44.125C42.9861 45.2639 41.6111 45.8333 40 45.8333ZM36.3333 68.3333H43.6666L44.8333 59C46.6666 58.5556 48.4027 57.8611 50.0416 56.9167C51.6805 55.9722 53.1666 54.8333 54.5 53.5L63.3333 57.3333L66.6666 51.3333L58.8333 45.5833C59.0555 44.6389 59.2361 43.7083 59.375 42.7917C59.5139 41.875 59.5833 40.9445 59.5833 40C59.5833 39.0556 59.5277 38.125 59.4166 37.2083C59.3055 36.2917 59.1111 35.3611 58.8333 34.4167L66.6666 28.6667L63.3333 22.6667L54.5 26.5C53.2222 25.0556 51.7777 23.8472 50.1666 22.875C48.5555 21.9028 46.7777 21.2778 44.8333 21L43.6666 11.6667H36.3333L35.1666 21C33.2777 21.3889 31.5138 22.0556 29.875 23C28.2361 23.9445 26.7777 25.1111 25.5 26.5L16.6666 22.6667L13.3333 28.6667L21.1666 34.4167C20.9444 35.3611 20.7638 36.2917 20.625 37.2083C20.4861 38.125 20.4166 39.0556 20.4166 40C20.4166 40.9445 20.4861 41.875 20.625 42.7917C20.7638 43.7083 20.9444 44.6389 21.1666 45.5833L13.3333 51.3333L16.6666 57.3333L25.5 53.5C26.8333 54.8333 28.3194 55.9722 29.9583 56.9167C31.5972 57.8611 33.3333 58.5556 35.1666 59L36.3333 68.3333Z" fill="white"/>
</svg>
