<svg width="80" height="80" viewBox="0 0 80 80" fill="none" xmlns="http://www.w3.org/2000/svg">
<path d="M15 70C13.6667 70 12.5 69.5 11.5 68.5C10.5 67.5 10 66.3333 10 65V15C10 13.6667 10.5 12.5 11.5 11.5C12.5 10.5 13.6667 10 15 10H65C66.3333 10 67.5 10.5 68.5 11.5C69.5 12.5 70 13.6667 70 15V65C70 66.3333 69.5 67.5 68.5 68.5C67.5 69.5 66.3333 70 65 70H15ZM40 55.5833C41.9444 55.5833 43.7222 55.0833 45.3333 54.0833C46.9444 53.0833 48.25 51.75 49.25 50.0833C49.5833 49.4722 50.0833 49.0833 50.75 48.9167C51.4167 48.75 52.0833 48.6667 52.75 48.6667H65V15H15V48.6667H27.25C27.9167 48.6667 28.5833 48.75 29.25 48.9167C29.9167 49.0833 30.4167 49.4722 30.75 50.0833C31.75 51.75 33.0556 53.0833 34.6667 54.0833C36.2778 55.0833 38.0556 55.5833 40 55.5833Z" fill="white"/>
</svg>
